<svg width="89" height="88" viewBox="0 0 89 88" fill="none" xmlns="http://www.w3.org/2000/svg">
<rect x="1" y="0.5" width="87" height="87" rx="11.5" fill="url(#paint0_linear_49_6124)" fill-opacity="0.2"/>
<rect x="1" y="0.5" width="87" height="87" rx="11.5" stroke="#262626"/>
<path d="M25.9287 58.1182C25.9287 58.9218 26.4644 59.4408 27.268 59.4408H60.566C61.3026 59.4408 61.922 58.8548 61.922 58.1015C61.922 57.365 61.3026 56.7622 60.566 56.7622H29.0928C28.7412 56.7622 28.624 56.6451 28.624 56.2935V29.8259C28.624 29.106 28.0213 28.4866 27.2847 28.4866C26.5314 28.4866 25.9287 29.106 25.9287 29.8259V58.1182ZM27.6865 47.7054L38.451 41.4776L46.2021 48.1238L59.98 39.9207L58.9254 38.2131L46.3361 45.7131L38.6184 39.1004L27.6865 45.4118V47.7054ZM38.2334 43.7377C39.874 43.7377 41.2133 42.3984 41.2133 40.7578C41.2133 39.1171 39.874 37.7946 38.2334 37.7946C36.5928 37.7946 35.2535 39.1171 35.2535 40.7578C35.2535 42.3984 36.5928 43.7377 38.2334 43.7377ZM46.1351 49.8817C47.7759 49.8817 49.0984 48.5424 49.0984 46.9017C49.0984 45.2611 47.7759 43.9385 46.1351 43.9385C44.4946 43.9385 43.1553 45.2611 43.1553 46.9017C43.1553 48.5424 44.4946 49.8817 46.1351 49.8817ZM58.758 42.2645C60.3986 42.2645 61.7379 40.9252 61.7379 39.2846C61.7379 37.6439 60.3986 36.3047 58.758 36.3047C57.1173 36.3047 55.778 37.6439 55.778 39.2846C55.778 40.9252 57.1173 42.2645 58.758 42.2645Z" fill="#9EFF00"/>
<defs>
<linearGradient id="paint0_linear_49_6124" x1="-113" y1="-87" x2="88.5" y2="88" gradientUnits="userSpaceOnUse">
<stop offset="0.224072" stop-color="#9EFF00"/>
<stop offset="0.707836" stop-color="#9EFF00" stop-opacity="0"/>
</linearGradient>
</defs>
</svg>
