<svg width="89" height="88" viewBox="0 0 89 88" fill="none" xmlns="http://www.w3.org/2000/svg">
<rect x="1" y="0.5" width="87" height="87" rx="11.5" fill="url(#paint0_linear_49_6097)" fill-opacity="0.2"/>
<rect x="1" y="0.5" width="87" height="87" rx="11.5" stroke="#262626"/>
<path fill-rule="evenodd" clip-rule="evenodd" d="M37 32.75C37 29.9886 39.2386 27.75 42 27.75H47C49.7614 27.75 52 29.9886 52 32.75V33.0916C53.5541 33.2339 55.0957 33.4199 56.6234 33.6485C59.0468 34.0111 60.75 36.1194 60.75 38.5095V43.5648C60.75 45.5834 59.5273 47.4854 57.5229 48.1518C53.4277 49.5133 49.0486 50.25 44.5001 50.25C39.9514 50.25 35.5724 49.5133 31.4771 48.1518C29.4727 47.4854 28.25 45.5833 28.25 43.5648V38.5095C28.25 36.1194 29.9532 34.0111 32.3766 33.6485C33.9043 33.4199 35.4459 33.2339 37 33.0916V32.75ZM49.5 32.75V32.9014C47.8461 32.8009 46.1789 32.75 44.5 32.75C42.8211 32.75 41.1539 32.8009 39.5 32.9014V32.75C39.5 31.3693 40.6193 30.25 42 30.25H47C48.3807 30.25 49.5 31.3693 49.5 32.75ZM44.5 46.5C45.1904 46.5 45.75 45.9404 45.75 45.25C45.75 44.5596 45.1904 44 44.5 44C43.8096 44 43.25 44.5596 43.25 45.25C43.25 45.9404 43.8096 46.5 44.5 46.5Z" fill="#9EFF00"/>
<path d="M29.5 54.6666V50.0065C29.8717 50.2104 30.2683 50.3844 30.6884 50.5241C35.0348 51.9691 39.68 52.75 44.5001 52.75C49.3201 52.75 53.9652 51.9691 58.3116 50.5241C58.7317 50.3845 59.1283 50.2105 59.5 50.0066V54.6666C59.5 57.0865 57.7546 59.2125 55.2948 59.5391C51.7626 60.008 48.1592 60.25 44.5 60.25C40.8408 60.25 37.2374 60.008 33.7052 59.5391C31.2454 59.2125 29.5 57.0865 29.5 54.6666Z" fill="#9EFF00"/>
<defs>
<linearGradient id="paint0_linear_49_6097" x1="-113" y1="-87" x2="88.5" y2="88" gradientUnits="userSpaceOnUse">
<stop offset="0.224072" stop-color="#9EFF00"/>
<stop offset="0.707836" stop-color="#9EFF00" stop-opacity="0"/>
</linearGradient>
</defs>
</svg>
