<svg width="89" height="88" viewBox="0 0 89 88" fill="none" xmlns="http://www.w3.org/2000/svg">
<rect x="0.75" y="0.5" width="87" height="87" rx="11.5" fill="url(#paint0_linear_49_6011)" fill-opacity="0.2"/>
<rect x="0.75" y="0.5" width="87" height="87" rx="11.5" stroke="#262626"/>
<g clip-path="url(#clip0_49_6011)">
<path d="M46.3965 62.8032C53.0057 62.8032 56.7216 58.661 56.7216 51.5796V48.6556C56.7216 45.9753 55.4424 44.3457 53.9804 44.3457C53.6454 44.3457 53.4779 44.5286 53.4779 44.8331V46.1275C53.4779 46.7519 53.1581 47.0413 52.7925 47.0413C52.3965 47.0413 52.092 46.7519 52.092 46.1275V45.2748C52.092 43.7062 51.0717 42.6706 49.7162 42.6706C49.0919 42.6706 48.8177 42.9295 48.8177 43.4472V45.2138C48.8177 45.8382 48.5133 46.1275 48.1477 46.1275C47.7517 46.1275 47.4319 45.8382 47.4319 45.2138V43.5843C47.4319 41.8177 46.4117 40.9802 45.0867 40.9802C44.508 40.9802 44.1882 41.2543 44.1882 41.7569V45.2138C44.1882 45.8382 43.8836 46.1275 43.5181 46.1275C43.1222 46.1275 42.8024 45.8382 42.8024 45.2138V33.6551C42.8024 32.5282 42.0714 31.7972 41.112 31.7972C40.0916 31.7972 39.3911 32.5282 39.3911 33.6551V50.5744C39.3911 51.0008 39.117 51.214 38.8581 51.214C38.5992 51.214 38.386 51.0617 38.2033 50.6505L35.9646 45.3509C35.6296 44.5742 35.127 44.2392 34.4417 44.2392C33.3909 44.2392 32.7209 44.9549 32.7209 45.823C32.7209 46.1581 32.797 46.4473 32.8732 46.691L35.3402 54.0466C37.4418 60.2599 41.5384 62.8032 46.3965 62.8032ZM33.3453 35.6958C34.7006 35.6958 35.7362 34.6298 35.7362 33.3049C35.7362 31.9952 34.7006 30.9291 33.3453 30.9291C32.0508 30.9291 31 31.9952 31 33.3049C31 34.6298 32.0508 35.6958 33.3453 35.6958ZM41.112 28.7666C42.4369 28.7666 43.5029 27.7006 43.5029 26.3757C43.5029 25.0813 42.4369 24 41.112 24C39.8175 24 38.7363 25.0813 38.7363 26.3757C38.7363 27.7006 39.8175 28.7666 41.112 28.7666ZM48.9548 35.6958C50.2797 35.6958 51.3457 34.6298 51.3457 33.3049C51.3457 31.9952 50.2797 30.9291 48.9548 30.9291C47.6452 30.9291 46.5792 31.9952 46.5792 33.3049C46.5792 34.6298 47.6452 35.6958 48.9548 35.6958ZM55.9601 35.6958C57.2851 35.6958 58.3511 34.6298 58.3511 33.3049C58.3511 31.9952 57.2851 30.9291 55.9601 30.9291C54.6656 30.9291 53.5996 31.9952 53.5996 33.3049C53.5996 34.6298 54.6656 35.6958 55.9601 35.6958ZM55.9601 28.7666C57.2851 28.7666 58.3511 27.7006 58.3511 26.3757C58.3511 25.0813 57.2851 24 55.9601 24C54.6656 24 53.5996 25.0813 53.5996 26.3757C53.5996 27.7006 54.6656 28.7666 55.9601 28.7666Z" fill="#9EFF00"/>
</g>
<defs>
<linearGradient id="paint0_linear_49_6011" x1="-113.25" y1="-87" x2="88.25" y2="88" gradientUnits="userSpaceOnUse">
<stop offset="0.224072" stop-color="#9EFF00"/>
<stop offset="0.707836" stop-color="#9EFF00" stop-opacity="0"/>
</linearGradient>
<clipPath id="clip0_49_6011">
<rect width="40" height="40" fill="white" transform="translate(24.25 24)"/>
</clipPath>
</defs>
</svg>
