<svg width="89" height="88" viewBox="0 0 89 88" fill="none" xmlns="http://www.w3.org/2000/svg">
<rect x="1.25" y="0.5" width="87" height="87" rx="11.5" fill="url(#paint0_linear_77_29529)" fill-opacity="0.2"/>
<rect x="1.25" y="0.5" width="87" height="87" rx="11.5" stroke="#262626"/>
<path fill-rule="evenodd" clip-rule="evenodd" d="M28.5 34C28.5 31.2386 30.7386 29 33.5 29H56C58.7614 29 61 31.2386 61 34V54C61 56.7614 58.7614 59 56 59H33.5C30.7386 59 28.5 56.7614 28.5 54V34ZM35.1161 35.6161C35.6043 35.128 36.3957 35.128 36.8839 35.6161L40.6339 39.3661C41.122 39.8543 41.122 40.6457 40.6339 41.1339L36.8839 44.8839C36.3957 45.372 35.6043 45.372 35.1161 44.8839C34.628 44.3957 34.628 43.6043 35.1161 43.1161L37.9822 40.25L35.1161 37.3839C34.628 36.8957 34.628 36.1043 35.1161 35.6161ZM42.25 42.75C41.5596 42.75 41 43.3096 41 44C41 44.6904 41.5596 45.25 42.25 45.25H47.25C47.9404 45.25 48.5 44.6904 48.5 44C48.5 43.3096 47.9404 42.75 47.25 42.75H42.25Z" fill="#9EFF00"/>
<defs>
<linearGradient id="paint0_linear_77_29529" x1="-112.75" y1="-87" x2="88.75" y2="88" gradientUnits="userSpaceOnUse">
<stop offset="0.224072" stop-color="#9EFF00"/>
<stop offset="0.707836" stop-color="#9EFF00" stop-opacity="0"/>
</linearGradient>
</defs>
</svg>
