<svg width="89" height="88" viewBox="0 0 89 88" fill="none" xmlns="http://www.w3.org/2000/svg">
<rect x="0.75" y="0.5" width="87" height="87" rx="11.5" fill="url(#paint0_linear_49_5984)" fill-opacity="0.2"/>
<rect x="0.75" y="0.5" width="87" height="87" rx="11.5" stroke="#262626"/>
<path d="M28.8485 46.0257C29.8195 46.0257 30.5896 45.2556 30.5896 44.3013C30.5896 43.3303 29.8195 42.5603 28.8485 42.5603C27.8775 42.5603 27.1074 43.3303 27.1074 44.3013C27.1074 45.2556 27.8775 46.0257 28.8485 46.0257ZM32.7994 34.2902C33.7704 34.2902 34.5405 33.5034 34.5405 32.5491C34.5405 31.5782 33.7704 30.8081 32.7994 30.8081C31.8452 30.8081 31.0583 31.5782 31.0583 32.5491C31.0583 33.5034 31.8452 34.2902 32.7994 34.2902ZM44.5684 30.3393C45.5226 30.3393 46.2927 29.5692 46.2927 28.5982C46.2927 27.644 45.5226 26.8572 44.5684 26.8572C43.5974 26.8572 42.8273 27.644 42.8273 28.5982C42.8273 29.5692 43.5974 30.3393 44.5684 30.3393ZM56.3206 34.2902C57.2916 34.2902 58.0617 33.5034 58.0617 32.5491C58.0617 31.5782 57.2916 30.8081 56.3206 30.8081C55.3496 30.8081 54.5796 31.5782 54.5796 32.5491C54.5796 33.5034 55.3496 34.2902 56.3206 34.2902ZM60.2883 46.0257C61.2424 46.0257 62.0126 45.2556 62.0126 44.3013C62.0126 43.3303 61.2424 42.5603 60.2883 42.5603C59.3173 42.5603 58.5471 43.3303 58.5471 44.3013C58.5471 45.2556 59.3173 46.0257 60.2883 46.0257ZM57.4256 58.3472C58.1621 58.3472 58.7983 57.7445 58.7983 57.0079C58.7983 56.2545 58.1621 55.635 57.4256 55.635H55.3831V44.5357C55.3831 38.4253 50.6621 33.7043 44.5684 33.7043C38.4579 33.7043 33.7704 38.4253 33.7704 44.5357V55.635H31.6945C30.9579 55.635 30.3719 56.2545 30.3719 57.0079C30.3719 57.7445 30.9579 58.3472 31.6945 58.3472H57.4256ZM45.9746 44.586V55.635H43.1789V44.586C43.1789 43.8159 43.7983 43.1798 44.5684 43.1798C45.3384 43.1798 45.9746 43.8159 45.9746 44.586Z" fill="#9EFF00"/>
<defs>
<linearGradient id="paint0_linear_49_5984" x1="-113.25" y1="-87" x2="88.25" y2="88" gradientUnits="userSpaceOnUse">
<stop offset="0.224072" stop-color="#9EFF00"/>
<stop offset="0.707836" stop-color="#9EFF00" stop-opacity="0"/>
</linearGradient>
</defs>
</svg>
