<svg width="89" height="88" viewBox="0 0 89 88" fill="none" xmlns="http://www.w3.org/2000/svg">
<rect x="1" y="0.5" width="87" height="87" rx="11.5" fill="url(#paint0_linear_77_29532)" fill-opacity="0.2"/>
<rect x="1" y="0.5" width="87" height="87" rx="11.5" stroke="#262626"/>
<path d="M50.5483 42.5C51.4888 42.5 52.2025 41.6344 51.8229 40.7739C50.5825 37.9624 47.7704 36 44.5 36C44.2075 36 43.9187 36.0157 43.6344 36.0463C42.6986 36.147 42.305 37.1981 42.7756 38.0132L44.933 41.75C45.201 42.2141 45.6962 42.5 46.2321 42.5L50.5483 42.5Z" fill="#9EFF00"/>
<path d="M40.179 39.5157C39.7082 38.7004 38.6005 38.5156 38.0439 39.2748C37.0732 40.5988 36.5 42.2325 36.5 44C36.5 45.7676 37.0732 47.4013 38.044 48.7253C38.6006 49.4845 39.7083 49.2997 40.179 48.4844L42.335 44.7501C42.603 44.286 42.603 43.7142 42.335 43.2501L40.179 39.5157Z" fill="#9EFF00"/>
<path d="M42.7757 49.9868C42.3051 50.8019 42.6987 51.8531 43.6345 51.9537C43.9188 51.9843 44.2076 52 44.5 52C47.7704 52 50.5825 50.0376 51.8229 47.2261C52.2025 46.3656 51.4888 45.5 50.5483 45.5H46.2322C45.6963 45.5 45.2011 45.7859 44.9332 46.25L42.7757 49.9868Z" fill="#9EFF00"/>
<path fill-rule="evenodd" clip-rule="evenodd" d="M52.7591 32.6945L54.0488 30.4606C54.463 29.7431 54.2172 28.8257 53.4998 28.4115C52.7824 27.9973 51.865 28.2431 51.4508 28.9606L50.1623 31.1923C48.8663 30.6185 47.467 30.2357 46 30.0794V27.5C46 26.6716 45.3284 26 44.5 26C43.6716 26 43 26.6716 43 27.5V30.0794C41.533 30.2357 40.1337 30.6185 38.8377 31.1923L37.5492 28.9606C37.135 28.2432 36.2176 27.9973 35.5002 28.4116C34.7828 28.8258 34.537 29.7432 34.9512 30.4606L36.2409 32.6945C35.0757 33.5472 34.0472 34.5757 33.1945 35.7409L30.9602 34.4509C30.2427 34.0367 29.3253 34.2825 28.9111 35C28.4969 35.7174 28.7427 36.6348 29.4602 37.049L31.6923 38.3377C31.1185 39.6337 30.7357 41.033 30.5794 42.5H28C27.1716 42.5 26.5 43.1716 26.5 44C26.5 44.8284 27.1716 45.5 28 45.5H30.5794C30.7357 46.967 31.1185 48.3663 31.6923 49.6622L29.4602 50.9509C28.7427 51.3651 28.4969 52.2825 28.9111 53C29.3253 53.7174 30.2427 53.9632 30.9602 53.549L33.1945 52.259C34.0471 53.4242 35.0755 54.4526 36.2406 55.3053L34.9508 57.5394C34.5365 58.2568 34.7824 59.1742 35.4998 59.5884C36.2172 60.0027 37.1346 59.7568 37.5488 59.0394L38.8374 56.8075C40.1334 57.3814 41.5329 57.7643 43 57.9206V60.5C43 61.3284 43.6716 62 44.5 62C45.3284 62 46 61.3284 46 60.5V57.9206C47.4671 57.7643 48.8666 57.3814 50.1626 56.8076L51.4512 59.0394C51.8654 59.7569 52.7828 60.0027 53.5002 59.5885C54.2176 59.1743 54.4635 58.2569 54.0492 57.5394L52.7594 55.3053C53.9245 54.4527 54.9528 53.4243 55.8054 52.2592L58.0395 53.549C58.7569 53.9632 59.6743 53.7174 60.0885 53C60.5028 52.2825 60.2569 51.3651 59.5395 50.9509L57.3076 49.6624C57.8814 48.3664 58.2643 46.9671 58.4206 45.5H61C61.8284 45.5 62.5 44.8284 62.5 44C62.5 43.1716 61.8284 42.5 61 42.5H58.4206C58.2643 41.0329 57.8814 39.6336 57.3076 38.3376L59.5395 37.049C60.2569 36.6348 60.5028 35.7174 60.0885 35C59.6743 34.2825 58.7569 34.0367 58.0395 34.4509L55.8054 35.7408C54.9527 34.5756 53.9243 33.5472 52.7591 32.6945ZM44.5 33C42.5224 33 40.6667 33.5219 39.0631 34.4354C39.0425 34.4486 39.0216 34.4614 39.0002 34.4737C38.9796 34.4857 38.9587 34.497 38.9378 34.5079C37.3134 35.4618 35.9555 36.8208 35.003 38.4461C34.9935 38.4642 34.9836 38.4821 34.9733 38.5C34.9626 38.5185 34.9516 38.5367 34.9402 38.5547C34.0237 40.1602 33.5 42.0189 33.5 44C33.5 45.9808 34.0236 47.8394 34.9399 49.4448C34.9514 49.4629 34.9625 49.4813 34.9733 49.5C34.9837 49.518 34.9937 49.5361 35.0032 49.5543C35.9564 51.1805 37.3153 52.5401 38.941 53.494C38.9607 53.5043 38.9803 53.515 38.9998 53.5263C39.02 53.5379 39.0398 53.55 39.0593 53.5625C40.6638 54.4773 42.5208 55 44.5 55C46.4794 55 48.3367 54.4772 49.9414 53.5621C49.9606 53.5498 49.9802 53.5378 50.0002 53.5263C50.0195 53.5152 50.0389 53.5046 50.0584 53.4944C51.6827 52.5414 53.0407 51.1835 53.9938 49.5593C54.0042 49.5394 54.015 49.5196 54.0264 49.5C54.0381 49.4796 54.0503 49.4596 54.0628 49.44C54.9775 47.8357 55.5 45.9789 55.5 44C55.5 42.0209 54.9774 40.1639 54.0626 38.5595C54.0501 38.54 54.038 38.5202 54.0264 38.5C54.0151 38.4805 54.0044 38.4609 53.9941 38.4411C53.0416 36.8178 51.6846 35.4605 50.0616 34.5075C50.0408 34.4968 50.0202 34.4855 49.9998 34.4737C49.9786 34.4615 49.9579 34.4488 49.9376 34.4358C48.3338 33.522 46.4779 33 44.5 33Z" fill="#9EFF00"/>
<defs>
<linearGradient id="paint0_linear_77_29532" x1="-113" y1="-87" x2="88.5" y2="88" gradientUnits="userSpaceOnUse">
<stop offset="0.224072" stop-color="#9EFF00"/>
<stop offset="0.707836" stop-color="#9EFF00" stop-opacity="0"/>
</linearGradient>
</defs>
</svg>
