<svg width="89" height="88" viewBox="0 0 89 88" fill="none" xmlns="http://www.w3.org/2000/svg">
<rect x="0.75" y="0.5" width="87" height="87" rx="11.5" fill="url(#paint0_linear_49_6130)" fill-opacity="0.2"/>
<rect x="0.75" y="0.5" width="87" height="87" rx="11.5" stroke="#262626"/>
<path d="M26.309 61.9079C29.0713 64.6702 33.1728 64.7706 35.8849 61.5396C37.8771 59.1456 42.9161 51.0262 47.2353 46.7069C50.1149 43.8275 53.2956 45.3509 56.4931 44.0452L53.6471 33.6657C53.2956 32.3766 53.8146 31.3052 55.3046 30.9034L61.5824 29.2293C61.3816 28.6434 60.8291 27.8398 60.1427 27.1367C56.2756 23.169 49.8804 23.1188 46.0634 26.7349C40.4887 32.0418 44.7241 37.6501 41.0579 41.3163C36.4373 45.9202 30.0757 49.2683 26.6773 52.3152C23.4965 55.1445 23.5132 59.1121 26.309 61.9079ZM31.0467 59.2293C29.9083 59.2293 28.9708 58.3085 28.9708 57.1702C28.9708 56.0318 29.9083 55.0942 31.0467 55.0942C32.1851 55.0942 33.1059 56.0318 33.1059 57.1702C33.1059 58.3085 32.1851 59.2293 31.0467 59.2293ZM46.7833 36.8632C46.415 36.9637 46.097 36.7795 45.9797 36.3777C45.8793 36.0764 46.0801 35.7081 46.4317 35.6076L50.3491 34.553C50.6673 34.4692 51.0356 34.6701 51.1193 35.0217C51.2364 35.4067 51.0189 35.7416 50.6673 35.842L46.7833 36.8632ZM47.2856 38.8553C46.9173 38.9559 46.5991 38.7718 46.4653 38.3699C46.3649 38.0686 46.5824 37.7003 46.934 37.6166L50.8347 36.5451C51.1527 36.4782 51.521 36.6623 51.6214 37.0139C51.7387 37.3989 51.5043 37.7338 51.1527 37.8342L47.2856 38.8553ZM47.771 40.8476C47.4194 40.9481 47.0511 40.7639 46.9843 40.3621C46.9006 40.0273 47.0847 39.7092 47.453 39.6088L51.3369 38.5708C51.7051 38.4536 52.0567 38.6712 52.1237 39.0061C52.2074 39.3409 52.0066 39.7092 51.6884 39.7929L47.771 40.8476ZM58.3347 43.2416C58.9876 42.8565 59.6571 42.3543 60.3436 41.7013C62.453 39.7929 63.5411 36.9134 63.1059 34.871L58.0333 36.2605C57.4641 36.4112 56.9786 36.4447 56.4597 36.361L58.3347 43.2416Z" fill="#9EFF00"/>
<defs>
<linearGradient id="paint0_linear_49_6130" x1="-113.25" y1="-87" x2="88.25" y2="88" gradientUnits="userSpaceOnUse">
<stop offset="0.224072" stop-color="#9EFF00"/>
<stop offset="0.707836" stop-color="#9EFF00" stop-opacity="0"/>
</linearGradient>
</defs>
</svg>
