<svg width="89" height="88" viewBox="0 0 89 88" fill="none" xmlns="http://www.w3.org/2000/svg">
<rect x="0.75" y="0.5" width="87" height="87" rx="11.5" fill="url(#paint0_linear_49_6038)" fill-opacity="0.2"/>
<rect x="0.75" y="0.5" width="87" height="87" rx="11.5" stroke="#262626"/>
<path d="M33.625 30.25C31.2088 30.25 29.25 32.2088 29.25 34.625C29.25 37.0412 31.2088 39 33.625 39H54.875C57.2912 39 59.25 37.0412 59.25 34.625C59.25 32.2088 57.2912 30.25 54.875 30.25H33.625Z" fill="#9EFF00"/>
<path d="M30.5 42.75C29.8096 42.75 29.25 43.3096 29.25 44C29.25 44.6904 29.8096 45.25 30.5 45.25H58C58.6904 45.25 59.25 44.6904 59.25 44C59.25 43.3096 58.6904 42.75 58 42.75H30.5Z" fill="#9EFF00"/>
<path d="M29.25 50.25C29.25 49.5596 29.8096 49 30.5 49H58C58.6904 49 59.25 49.5596 59.25 50.25C59.25 50.9404 58.6904 51.5 58 51.5H30.5C29.8096 51.5 29.25 50.9404 29.25 50.25Z" fill="#9EFF00"/>
<path d="M30.5 55.25C29.8096 55.25 29.25 55.8096 29.25 56.5C29.25 57.1904 29.8096 57.75 30.5 57.75H58C58.6904 57.75 59.25 57.1904 59.25 56.5C59.25 55.8096 58.6904 55.25 58 55.25H30.5Z" fill="#9EFF00"/>
<defs>
<linearGradient id="paint0_linear_49_6038" x1="-113.25" y1="-87" x2="88.25" y2="88" gradientUnits="userSpaceOnUse">
<stop offset="0.224072" stop-color="#9EFF00"/>
<stop offset="0.707836" stop-color="#9EFF00" stop-opacity="0"/>
</linearGradient>
</defs>
</svg>
