<svg width="89" height="88" viewBox="0 0 89 88" fill="none" xmlns="http://www.w3.org/2000/svg">
<rect x="1.25" y="0.5" width="87" height="87" rx="11.5" fill="url(#paint0_linear_49_6026)" fill-opacity="0.2"/>
<rect x="1.25" y="0.5" width="87" height="87" rx="11.5" stroke="#262626"/>
<g clip-path="url(#clip0_49_6026)">
<path d="M29.0533 55.2533H60.3758C63.0727 55.2533 64.4291 53.9758 64.4291 51.2V33.1257C64.4291 30.3656 63.0727 29.0881 60.3758 29.0881H29.0533C26.3564 29.0881 25 30.3656 25 33.1257V51.2C25 53.9758 26.3564 55.2533 29.0533 55.2533ZM36.7814 60.5999H52.6477C53.3416 60.5999 53.9252 60.0321 53.9252 59.3223C53.9252 58.6126 53.3416 58.0448 52.6477 58.0448H36.7814C36.0874 58.0448 35.5039 58.6126 35.5039 59.3223C35.5039 60.0321 36.0874 60.5999 36.7814 60.5999ZM45.5346 48.708C45.1877 48.708 44.9668 48.503 44.9196 48.1718C44.2257 43.4245 43.6105 42.3679 38.6267 41.8632C38.2955 41.8158 38.0904 41.5792 38.0904 41.2638C38.0904 40.9642 38.2955 40.7118 38.6267 40.6645C43.5947 40.0021 44.0206 39.1347 44.9196 34.3401C44.9984 34.0246 45.2192 33.8196 45.5346 33.8196C45.8344 33.8196 46.0708 34.0404 46.1182 34.3559C46.828 39.0558 47.4745 40.0021 52.4268 40.6645C52.7423 40.7118 52.963 40.9642 52.963 41.2638C52.963 41.5792 52.7423 41.8158 52.4268 41.8632C47.4588 42.5256 47.0172 43.4245 46.1182 48.1876C46.0551 48.503 45.8344 48.708 45.5346 48.708ZM39.1314 51.3735C38.879 51.3735 38.7529 51.2 38.6741 50.9476C38.2008 48.6291 38.4059 48.5188 35.8509 48.1402C35.5828 48.093 35.4408 47.9352 35.4408 47.6829C35.4408 47.462 35.5828 47.2728 35.8193 47.2413C38.4059 46.8155 38.2008 46.705 38.6741 44.4024C38.7529 44.15 38.8948 43.9766 39.1314 43.9766C39.368 43.9766 39.5257 44.1658 39.5887 44.4024C40.0304 46.705 39.8727 46.8155 42.4592 47.2413C42.68 47.2728 42.8377 47.462 42.8377 47.6829C42.8377 47.9037 42.68 48.093 42.4592 48.1402C39.8727 48.5188 40.0304 48.6291 39.5887 50.9949C39.5257 51.2157 39.3522 51.3735 39.1314 51.3735Z" fill="#9EFF00"/>
</g>
<defs>
<linearGradient id="paint0_linear_49_6026" x1="-112.75" y1="-87" x2="88.75" y2="88" gradientUnits="userSpaceOnUse">
<stop offset="0.224072" stop-color="#9EFF00"/>
<stop offset="0.707836" stop-color="#9EFF00" stop-opacity="0"/>
</linearGradient>
<clipPath id="clip0_49_6026">
<rect width="40" height="40" fill="white" transform="translate(24.75 24)"/>
</clipPath>
</defs>
</svg>
