<svg width="89" height="88" viewBox="0 0 89 88" fill="none" xmlns="http://www.w3.org/2000/svg">
<rect x="1" y="0.5" width="87" height="87" rx="11.5" fill="url(#paint0_linear_49_6005)" fill-opacity="0.2"/>
<rect x="1" y="0.5" width="87" height="87" rx="11.5" stroke="#262626"/>
<path d="M36.7937 50.8917C36.258 50.3393 35.3037 50.3393 34.7345 50.8917L31.2859 54.3237C30.7334 54.8762 30.7334 55.8303 31.2691 56.3829C31.8216 56.9353 32.7758 56.952 33.345 56.3996L36.7937 52.9509C37.3629 52.3984 37.3629 51.461 36.7937 50.8917ZM33.7635 43.5926C33.7635 42.8059 33.0939 42.1362 32.2903 42.1362H27.3852C26.5984 42.1362 25.9287 42.8059 25.9287 43.5926C25.9287 44.3794 26.5984 45.0492 27.3852 45.0492H32.2903C33.0939 45.0492 33.7635 44.3794 33.7635 43.5926ZM36.6263 36.1429C37.1955 35.5904 37.1955 34.6529 36.6263 34.0837L33.1943 30.6351C32.6419 30.0826 31.7044 30.0659 31.1352 30.6183C30.5827 31.1708 30.5827 32.1083 31.1352 32.6775L34.5671 36.1429C35.1363 36.7121 36.0738 36.7121 36.6263 36.1429ZM44.0927 33.2299C44.8963 33.2299 45.566 32.5603 45.566 31.7735V26.8851C45.566 26.0982 44.8963 25.4286 44.0927 25.4286C43.306 25.4286 42.6363 26.0982 42.6363 26.8851V31.7735C42.6363 32.5603 43.306 33.2299 44.0927 33.2299ZM51.3751 36.3103C51.9443 36.8795 52.8986 36.8795 53.451 36.3103L56.8997 32.8616C57.4689 32.2924 57.4689 31.3549 56.8997 30.7857C56.3473 30.2333 55.4097 30.2333 54.8573 30.7857L51.3751 34.2511C50.8227 34.8203 50.8227 35.7578 51.3751 36.3103ZM54.4556 43.5926C54.4556 44.3794 55.1251 45.0492 55.912 45.0492H60.8004C61.604 45.0492 62.2736 44.3794 62.2736 43.5926C62.2736 42.8059 61.604 42.1362 60.8004 42.1362H55.912C55.1251 42.1362 54.4556 42.8059 54.4556 43.5926ZM42.7703 55.2277C42.7534 55.8806 43.5069 56.0814 43.9421 55.663L46.4867 53.1016L49.3494 60.183C49.4834 60.4844 49.8183 60.6517 50.1196 60.5179L51.7937 59.865C52.095 59.7143 52.2121 59.3627 52.0616 59.0614L49.0481 52.0972L52.6641 51.9464C53.2836 51.913 53.6017 51.3103 53.1497 50.8247L43.9923 41.433C43.5739 40.9977 42.9376 41.2322 42.9209 41.8516L42.7703 55.2277Z" fill="#9EFF00"/>
<defs>
<linearGradient id="paint0_linear_49_6005" x1="-113" y1="-87" x2="88.5" y2="88" gradientUnits="userSpaceOnUse">
<stop offset="0.224072" stop-color="#9EFF00"/>
<stop offset="0.707836" stop-color="#9EFF00" stop-opacity="0"/>
</linearGradient>
</defs>
</svg>
