<svg width="89" height="88" viewBox="0 0 89 88" fill="none" xmlns="http://www.w3.org/2000/svg">
<rect x="1.25" y="0.5" width="87" height="87" rx="11.5" fill="url(#paint0_linear_49_5999)" fill-opacity="0.2"/>
<rect x="1.25" y="0.5" width="87" height="87" rx="11.5" stroke="#262626"/>
<path d="M49.8405 58.4432H59.7963C61.9863 58.4432 63.4508 57.0458 63.4508 54.9499V33.4933C63.4508 31.3973 61.9863 30 59.7963 30H49.8405C47.6505 30 46.1726 31.3973 46.1726 33.4933V54.9499C46.1726 57.0458 47.6505 58.4432 49.8405 58.4432ZM50.1092 56.2801C48.9807 56.2801 48.3358 55.6754 48.3358 54.6005V33.8426C48.3358 32.7677 48.9807 32.1631 50.1092 32.1631H59.5142C60.6428 32.1631 61.2876 32.7677 61.2876 33.8426V54.6005C61.2876 55.6754 60.6428 56.2801 59.5142 56.2801H50.1092ZM28.1958 55.2455C28.8944 55.2455 29.3915 54.7619 29.3915 54.0632V52.0209C29.3915 47.023 32.4414 45.4106 36.3512 45.4106H37.2379L40.9596 45.2897V44.5373L37.3051 47.8693L35.8272 49.1323C35.5182 49.3876 35.4376 49.7234 35.4376 50.0459C35.4376 50.7043 35.9481 51.2014 36.6065 51.2014C36.9289 51.2014 37.2111 51.0804 37.5066 50.7983L43.1899 45.1285C43.4586 44.8733 43.6064 44.5642 43.6064 44.2283C43.6064 43.8924 43.4586 43.5834 43.1899 43.3281L37.4798 37.6314C37.2111 37.3627 36.9289 37.2552 36.6065 37.2552C35.9481 37.2552 35.4376 37.7389 35.4376 38.4107C35.4376 38.7331 35.5182 39.069 35.8272 39.3243L37.3051 40.5873L40.9596 43.9193V43.1669L37.2379 43.046H36.3512C31.5815 43.046 27 45.236 27 52.0209V54.0632C27 54.7619 27.4971 55.2455 28.1958 55.2455Z" fill="#9EFF00"/>
<defs>
<linearGradient id="paint0_linear_49_5999" x1="-112.75" y1="-87" x2="88.75" y2="88" gradientUnits="userSpaceOnUse">
<stop offset="0.224072" stop-color="#9EFF00"/>
<stop offset="0.707836" stop-color="#9EFF00" stop-opacity="0"/>
</linearGradient>
</defs>
</svg>
