<svg width="89" height="88" viewBox="0 0 89 88" fill="none" xmlns="http://www.w3.org/2000/svg">
<rect x="0.75" y="0.5" width="87" height="87" rx="11.5" fill="url(#paint0_linear_49_6103)" fill-opacity="0.2"/>
<rect x="0.75" y="0.5" width="87" height="87" rx="11.5" stroke="#262626"/>
<g clip-path="url(#clip0_49_6103)">
<path d="M38.3852 60.1385C38.6865 60.1385 38.9042 59.9207 38.9544 59.6027C39.4901 55.1329 39.7077 55.0156 44.2613 54.279C44.6129 54.212 44.8304 54.0446 44.8304 53.7099C44.8304 53.3918 44.6129 53.1909 44.3283 53.1406C39.7412 52.2702 39.4901 52.2869 38.9544 47.817C38.9042 47.4989 38.6865 47.2813 38.3852 47.2813C38.0671 47.2813 37.8495 47.4989 37.816 47.8003C37.2301 52.337 37.0794 52.4877 32.4421 53.1406C32.1575 53.1742 31.9399 53.3918 31.9399 53.7099C31.9399 54.0279 32.1575 54.212 32.4421 54.279C37.0794 55.1663 37.2133 55.1663 37.816 59.6362C37.8495 59.9207 38.0671 60.1385 38.3852 60.1385ZM30.4332 45.5569C30.6676 45.5569 30.8015 45.3896 30.8517 45.1719C31.4209 41.9912 31.4376 41.7902 34.8026 41.221C35.0202 41.1707 35.1876 41.0369 35.1876 40.8025C35.1876 40.5681 35.0202 40.4174 34.8026 40.384C31.4376 39.798 31.4209 39.5971 30.8517 36.4163C30.8015 36.1987 30.6676 36.048 30.4332 36.048C30.1988 36.048 30.0649 36.1987 30.0147 36.4163C29.4455 39.5971 29.4287 39.798 26.0638 40.384C25.8461 40.4174 25.6787 40.5681 25.6787 40.8025C25.6787 41.0369 25.8461 41.1707 26.0638 41.221C29.4287 41.7902 29.4455 41.9912 30.0147 45.1719C30.0649 45.3896 30.1988 45.5569 30.4332 45.5569ZM39.6073 34.8427C39.8082 34.8427 39.9086 34.7255 39.9421 34.5413C40.5113 31.8628 40.4779 31.7623 43.2903 31.1931C43.4744 31.1596 43.6084 31.0424 43.6084 30.8583C43.6084 30.6574 43.4744 30.5402 43.2903 30.5067C40.4779 29.9375 40.5113 29.8371 39.9421 27.1753C39.9086 26.9911 39.8082 26.8572 39.6073 26.8572C39.4064 26.8572 39.3059 26.9911 39.2725 27.1753C38.7033 29.8371 38.7367 29.9375 35.9243 30.5067C35.7401 30.5402 35.6062 30.6574 35.6062 30.8583C35.6062 31.0424 35.7401 31.1596 35.9243 31.1931C38.7367 31.7623 38.7033 31.8628 39.2725 34.5413C39.3059 34.7255 39.4064 34.8427 39.6073 34.8427ZM53.4354 40.7523C53.6699 40.7523 53.8037 40.6016 53.854 40.384C54.4231 37.2032 54.4399 37.0023 57.8049 36.4163C58.0391 36.3828 58.1899 36.2322 58.1899 35.9978C58.1899 35.7634 58.0391 35.6295 57.8049 35.5793C54.4399 35.0101 54.4231 34.8092 53.854 31.6284C53.8037 31.4107 53.6699 31.2433 53.4354 31.2433C53.201 31.2433 53.0671 31.4107 53.0169 31.6284C52.4477 34.8092 52.431 35.0101 49.066 35.5793C48.8484 35.6295 48.681 35.7634 48.681 35.9978C48.681 36.2322 48.8484 36.3828 49.066 36.4163C52.431 37.0023 52.4477 37.2032 53.0169 40.384C53.0671 40.6016 53.201 40.7523 53.4354 40.7523ZM59.027 59.8706C59.73 60.5905 60.9354 60.5905 61.605 59.8706C62.2914 59.134 62.2914 57.9956 61.605 57.2925L45.6843 41.3215C44.9811 40.6183 43.7759 40.6183 43.1061 41.3215C42.403 42.058 42.4199 43.2132 43.1061 43.9163L59.027 59.8706ZM49.2836 48.3695L44.3784 43.4476C44.0771 43.1462 43.9767 42.8115 44.278 42.5269C44.5291 42.2589 44.8807 42.3259 45.1989 42.644L50.1207 47.5659L49.2836 48.3695Z" fill="#9EFF00"/>
</g>
<defs>
<linearGradient id="paint0_linear_49_6103" x1="-113.25" y1="-87" x2="88.25" y2="88" gradientUnits="userSpaceOnUse">
<stop offset="0.224072" stop-color="#9EFF00"/>
<stop offset="0.707836" stop-color="#9EFF00" stop-opacity="0"/>
</linearGradient>
<clipPath id="clip0_49_6103">
<rect width="36.4411" height="33.6329" fill="white" transform="translate(25.6787 26.8572)"/>
</clipPath>
</defs>
</svg>
