<svg width="89" height="88" viewBox="0 0 89 88" fill="none" xmlns="http://www.w3.org/2000/svg">
<rect x="1" y="0.5" width="87" height="87" rx="11.5" fill="url(#paint0_linear_49_6032)" fill-opacity="0.2"/>
<rect x="1" y="0.5" width="87" height="87" rx="11.5" stroke="#262626"/>
<path d="M34.5 29C31.7386 29 29.5 31.2386 29.5 34V37.75C29.5 40.5114 31.7386 42.75 34.5 42.75H38.25C41.0114 42.75 43.25 40.5114 43.25 37.75V34C43.25 31.2386 41.0114 29 38.25 29H34.5Z" fill="#9EFF00"/>
<path d="M50.75 29C47.9886 29 45.75 31.2386 45.75 34V37.75C45.75 40.5114 47.9886 42.75 50.75 42.75H54.5C57.2614 42.75 59.5 40.5114 59.5 37.75V34C59.5 31.2386 57.2614 29 54.5 29H50.75Z" fill="#9EFF00"/>
<path d="M34.5 45.25C31.7386 45.25 29.5 47.4886 29.5 50.25V54C29.5 56.7614 31.7386 59 34.5 59H38.25C41.0114 59 43.25 56.7614 43.25 54V50.25C43.25 47.4886 41.0114 45.25 38.25 45.25H34.5Z" fill="#9EFF00"/>
<path d="M53.875 46.5C53.875 45.8096 53.3154 45.25 52.625 45.25C51.9346 45.25 51.375 45.8096 51.375 46.5V50.875H47C46.3096 50.875 45.75 51.4346 45.75 52.125C45.75 52.8154 46.3096 53.375 47 53.375H51.375V57.75C51.375 58.4404 51.9346 59 52.625 59C53.3154 59 53.875 58.4404 53.875 57.75V53.375H58.25C58.9404 53.375 59.5 52.8154 59.5 52.125C59.5 51.4346 58.9404 50.875 58.25 50.875H53.875V46.5Z" fill="#9EFF00"/>
<defs>
<linearGradient id="paint0_linear_49_6032" x1="-113" y1="-87" x2="88.5" y2="88" gradientUnits="userSpaceOnUse">
<stop offset="0.224072" stop-color="#9EFF00"/>
<stop offset="0.707836" stop-color="#9EFF00" stop-opacity="0"/>
</linearGradient>
</defs>
</svg>
